<svg width="1037" height="159" viewBox="0 0 1037 159" fill="none" xmlns="http://www.w3.org/2000/svg">
<path d="M134.84 10.6152L205.424 66.443C208.291 68.7132 208.71 72.9249 206.29 75.7029C204.08 78.2717 200.256 78.66 197.538 76.6288L112.318 12.1983C107.568 8.61388 100.997 8.61389 96.277 12.2282L11.5948 76.6288C8.87661 78.6899 5.05328 78.3613 2.72338 75.8522C0.124656 73.0145 0.48313 68.5937 3.50004 66.2041L73.7554 10.6451C91.6776 -3.54337 116.948 -3.54338 134.84 10.6152Z" fill="#49B7B7"/>
<path fill-rule="evenodd" clip-rule="evenodd" d="M105.241 113.817L88.8123 97.3881C84.6902 93.266 84.6902 86.575 88.8123 82.4529C92.9344 78.3308 99.6254 78.3308 103.748 82.4529L105.241 83.9464L106.735 82.4529C110.857 78.3308 117.548 78.3308 121.67 82.4529C125.792 86.575 125.792 93.266 121.67 97.3881L105.241 113.817Z" fill="#49B7B7"/>
<path d="M90.3027 153.485C94.9625 146.824 112.766 152.738 126.566 149.691C133.675 147.959 150.611 141.686 161.574 130.664C165.188 126.213 173.223 113.668 176.449 99.0012C180.512 80.6608 181.019 68.1451 177.674 64.6204C174.985 61.7827 171.431 73.2828 169.998 79.3763C169.968 84.3647 167.22 97.1791 156.496 108.59C153.897 111.636 142.516 119.403 142.009 119.701C142.009 119.701 136.662 125.586 135.765 126.99C135.736 126.572 141.113 119.462 146.191 116.625C151.269 113.787 157.81 99.1804 158.168 98.2843C159.483 93.1765 159.692 89.5622 156.526 90.2791C152.583 91.1752 147.146 93.6843 141.949 99.4194C137.797 104.019 133.466 106.618 131.793 107.365C126.536 109.307 113.811 115.699 104.97 125.765C96.1279 135.802 94.6041 143.09 90.3027 153.485Z" fill="#49B7B7"/>
<path d="M120.621 151.961C115.484 147.839 95.6199 152.738 81.8198 149.691C74.7106 147.959 57.7742 141.686 46.8117 130.664C43.1974 126.213 35.1623 113.668 31.9363 99.0012C27.8739 80.6608 27.3657 68.1451 30.7112 64.6204C33.3995 61.7827 36.9543 73.2828 38.3881 79.3763C38.4179 84.3647 41.1661 97.1791 51.8895 108.59C54.4883 111.636 65.8684 119.403 66.3464 119.701C66.3464 119.701 71.6934 125.586 72.5896 126.99C72.6194 126.572 67.2428 119.462 62.1648 116.625C57.0868 113.787 50.5452 99.1804 50.1867 98.2843C48.8724 93.1765 48.6635 89.5622 51.8298 90.2791C55.7726 91.1752 61.2087 93.6843 66.4062 99.4194C70.5582 104.019 74.8898 106.618 76.5327 107.365C81.7898 109.307 94.5146 115.699 103.356 125.765C112.228 135.831 116.32 141.596 120.621 151.961Z" fill="#49B7B7"/>
<path d="M95.6505 28.627H98.6077C101.266 28.627 103.417 30.7776 103.417 33.4361V36.3933C103.417 39.0517 101.266 41.2024 98.6077 41.2024H95.6505C92.9921 41.2024 90.8418 39.0517 90.8418 36.3933V33.4361C90.8418 30.7776 92.9921 28.627 95.6505 28.627Z" fill="#49B7B7"/>
<path d="M95.6505 43.7402H98.6077C101.266 43.7402 103.417 45.8909 103.417 48.5494V51.5066C103.417 54.165 101.266 56.3157 98.6077 56.3157H95.6505C92.9921 56.3157 90.8418 54.165 90.8418 51.5066V48.5494C90.8418 45.8909 92.9921 43.7402 95.6505 43.7402Z" fill="#49B7B7"/>
<path d="M110.737 28.627H113.694C116.353 28.627 118.504 30.7776 118.504 33.4361V36.3933C118.504 39.0517 116.353 41.2024 113.694 41.2024H110.737C108.079 41.2024 105.928 39.0517 105.928 36.3933V33.4361C105.928 30.7776 108.079 28.627 110.737 28.627Z" fill="#49B7B7"/>
<path d="M110.737 43.7402H113.694C116.353 43.7402 118.504 45.8909 118.504 48.5494V51.5066C118.504 54.165 116.353 56.3157 113.694 56.3157H110.737C108.079 56.3157 105.928 54.165 105.928 51.5066V48.5494C105.928 45.8909 108.079 43.7402 110.737 43.7402Z" fill="#49B7B7"/>
<path d="M313.686 135.548C303.495 135.548 294.525 133.212 286.776 128.542C279.027 123.765 272.976 116.971 268.624 108.16C264.272 99.3492 262.095 88.84 262.095 76.6323C262.095 64.5308 264.219 54.0746 268.465 45.2638C272.817 36.3469 278.868 29.5 286.617 24.7231C294.366 19.84 303.442 17.3985 313.845 17.3985C327.858 17.3985 338.739 20.9015 346.488 27.9077C354.237 34.9138 359.279 44.6269 361.615 57.0469L343.622 58.0023C342.135 50.2531 338.951 44.2023 334.068 39.85C329.185 35.3915 322.444 33.1623 313.845 33.1623C306.945 33.1623 300.948 34.9138 295.852 38.4169C290.863 41.92 286.935 46.9092 284.069 53.3846C281.309 59.86 279.929 67.6092 279.929 76.6323C279.929 85.6554 281.309 93.4046 284.069 99.88C286.935 106.355 290.916 111.292 296.012 114.688C301.107 118.085 306.999 119.784 313.686 119.784C322.815 119.784 329.875 117.395 334.864 112.618C339.959 107.735 343.144 101.048 344.418 92.5554L362.411 93.5108C361.031 102.109 358.271 109.54 354.131 115.803C349.991 122.066 344.524 126.949 337.73 130.452C330.936 133.849 322.922 135.548 313.686 135.548Z" fill="#49B7B7"/>
<path d="M403.338 134.911C394.527 134.911 387.468 132.894 382.16 128.86C376.959 124.826 374.358 119.147 374.358 111.822C374.358 104.498 376.534 98.8185 380.887 94.7846C385.345 90.6446 392.192 87.6723 401.427 85.8677L430.567 80.2946C430.567 73.7131 429.027 68.83 425.949 65.6454C422.87 62.3546 418.306 60.7092 412.255 60.7092C406.841 60.7092 402.595 61.93 399.517 64.3715C396.438 66.7069 394.315 70.21 393.147 74.8808L375.791 73.7662C377.384 65.2738 381.311 58.5861 387.574 53.7031C393.944 48.82 402.17 46.3785 412.255 46.3785C423.72 46.3785 432.424 49.4569 438.369 55.6138C444.42 61.6646 447.445 70.21 447.445 81.25V114.211C447.445 116.228 447.763 117.661 448.4 118.51C449.143 119.253 450.311 119.625 451.904 119.625H454.929V133C454.398 133.106 453.549 133.212 452.381 133.318C451.214 133.425 449.993 133.478 448.719 133.478C445.11 133.478 441.978 132.894 439.324 131.726C436.777 130.558 434.866 128.648 433.592 125.994C432.318 123.234 431.681 119.572 431.681 115.007L433.433 115.803C432.584 119.518 430.726 122.809 427.86 125.675C425.1 128.542 421.544 130.824 417.191 132.522C412.945 134.115 408.327 134.911 403.338 134.911ZM406.045 121.535C411.14 121.535 415.493 120.58 419.102 118.669C422.711 116.652 425.524 113.892 427.541 110.389C429.558 106.886 430.567 102.905 430.567 98.4469V93.0331L405.727 97.81C400.631 98.7654 397.022 100.305 394.899 102.428C392.882 104.445 391.874 107.045 391.874 110.23C391.874 113.839 393.094 116.652 395.536 118.669C398.084 120.58 401.587 121.535 406.045 121.535Z" fill="#49B7B7"/>
<path d="M469.18 133V48.2892H484.625L485.262 70.7408L483.829 70.2631C484.997 62.62 487.332 57.0469 490.835 53.5438C494.445 50.0408 499.275 48.2892 505.325 48.2892H513.446V63.4161H505.325C501.079 63.4161 497.523 64.1061 494.657 65.4861C491.791 66.8661 489.615 68.9892 488.129 71.8554C486.749 74.7215 486.059 78.4369 486.059 83.0015V133H469.18Z" fill="#49B7B7"/>
<path d="M560.342 134.911C552.062 134.911 544.897 133.106 538.846 129.497C532.901 125.888 528.284 120.739 524.993 114.052C521.808 107.364 520.216 99.5615 520.216 90.6446C520.216 81.7277 521.808 73.9785 524.993 67.3969C528.284 60.7092 532.901 55.5608 538.846 51.9515C544.791 48.2361 551.797 46.3785 559.864 46.3785C567.508 46.3785 574.248 48.1831 580.087 51.7923C585.925 55.2954 590.437 60.3908 593.621 67.0785C596.912 73.7661 598.558 81.8338 598.558 91.2815V95.5808H537.731C538.156 103.861 540.332 110.071 544.26 114.211C548.294 118.351 553.707 120.421 560.501 120.421C565.491 120.421 569.631 119.253 572.921 116.918C576.212 114.582 578.494 111.451 579.768 107.523L597.284 108.638C595.054 116.493 590.649 122.862 584.068 127.745C577.592 132.522 569.684 134.911 560.342 134.911ZM537.731 82.8423H580.724C580.193 75.3054 578.017 69.7323 574.195 66.1231C570.48 62.5138 565.703 60.7092 559.864 60.7092C553.814 60.7092 548.824 62.62 544.897 66.4415C541.075 70.1569 538.687 75.6238 537.731 82.8423Z" fill="#49B7B7"/>
<path d="M618.966 133V19.9461H636.163V126.631L627.087 117.236H691.257V133H618.966Z" fill="#49B7B7"/>
<path d="M703.05 133V48.2892H719.929V133H703.05ZM702.732 36.0285V19.15H720.247V36.0285H702.732Z" fill="#49B7B7"/>
<path d="M764.688 133L733.797 48.2892H751.79L774.878 115.803L797.967 48.2892H816.119L785.069 133H764.688Z" fill="#49B7B7"/>
<path d="M829.782 133V48.2892H846.66V133H829.782ZM829.463 36.0285V19.15H846.979V36.0285H829.463Z" fill="#49B7B7"/>
<path d="M871.922 133V48.2892H887.367L888.004 70.9L885.934 69.7854C886.89 64.2654 888.694 59.8069 891.348 56.41C894.002 53.0131 897.24 50.5185 901.061 48.9262C904.883 47.2277 909.023 46.3785 913.481 46.3785C919.85 46.3785 925.105 47.8115 929.245 50.6777C933.491 53.4377 936.676 57.2592 938.799 62.1423C941.028 66.9192 942.143 72.3862 942.143 78.5431V133H925.264V83.6385C925.264 78.6492 924.733 74.4562 923.672 71.0592C922.61 67.6623 920.859 65.0615 918.417 63.2569C915.976 61.4523 912.791 60.55 908.863 60.55C902.919 60.55 898.089 62.5138 894.373 66.4415C890.658 70.3692 888.8 76.1015 888.8 83.6385V133H871.922Z" fill="#49B7B7"/>
<path d="M998.208 158.795C991.52 158.795 985.629 157.787 980.534 155.77C975.438 153.753 971.245 150.887 967.954 147.172C964.664 143.562 962.434 139.316 961.267 134.433L978.782 133.318C979.95 136.822 981.967 139.582 984.833 141.598C987.805 143.722 992.264 144.783 998.208 144.783C1005.21 144.783 1010.58 143.297 1014.29 140.325C1018.11 137.352 1020.02 132.841 1020.02 126.79V114.529C1018.01 118.882 1014.77 122.332 1010.31 124.879C1005.85 127.427 1000.86 128.701 995.342 128.701C988.23 128.701 981.913 126.949 976.393 123.446C970.873 119.943 966.574 115.113 963.496 108.956C960.417 102.799 958.878 95.6869 958.878 87.6192C958.878 79.4454 960.364 72.28 963.337 66.1231C966.415 59.9661 970.661 55.1361 976.075 51.6331C981.595 48.13 987.805 46.3785 994.705 46.3785C1000.76 46.3785 1006.06 47.7585 1010.63 50.5185C1015.3 53.2785 1018.64 56.9938 1020.66 61.6646V48.2892H1036.9V126.312C1036.9 133.318 1035.31 139.21 1032.12 143.987C1029.05 148.87 1024.59 152.532 1018.75 154.974C1013.02 157.522 1006.17 158.795 998.208 158.795ZM998.049 114.37C1004.63 114.37 1009.89 111.982 1013.81 107.205C1017.85 102.428 1019.92 95.8462 1020.02 87.46C1020.13 81.94 1019.28 77.2161 1017.48 73.2885C1015.67 69.2546 1013.07 66.1761 1009.67 64.0531C1006.38 61.8238 1002.51 60.7092 998.049 60.7092C991.149 60.7092 985.788 63.1508 981.967 68.0338C978.251 72.8108 976.393 79.2862 976.393 87.46C976.393 95.74 978.304 102.322 982.126 107.205C986.053 111.982 991.361 114.37 998.049 114.37Z" fill="#49B7B7"/>
</svg>
