<svg width="193" height="32" viewBox="0 0 193 32" fill="none" xmlns="http://www.w3.org/2000/svg">
<path d="M24.7139 1.95989L37.7458 12.2674C38.2752 12.6866 38.3524 13.4642 37.9057 13.9771C37.4976 14.4514 36.7917 14.5231 36.2899 14.148L20.5556 2.25219C19.6787 1.59039 18.4653 1.59039 17.594 2.2577L1.95901 14.148C1.45715 14.5286 0.751244 14.4679 0.321074 14.0046C-0.158731 13.4807 -0.0925453 12.6645 0.46447 12.2233L13.4358 1.96541C16.7448 -0.654216 21.4104 -0.654217 24.7139 1.95989Z" fill="#49B7B7"/>
<path fill-rule="evenodd" clip-rule="evenodd" d="M19.249 21.0141L16.2157 17.9808C15.4547 17.2198 15.4547 15.9844 16.2157 15.2233C16.9768 14.4623 18.2122 14.4623 18.9732 15.2233L19.249 15.4991L19.5247 15.2233C20.2858 14.4623 21.5212 14.4623 22.2822 15.2233C23.0433 15.9844 23.0433 17.2198 22.2822 17.9808L19.249 21.0141Z" fill="#49B7B7"/>
<path d="M16.4909 28.338C17.3512 27.1082 20.6383 28.2001 23.1862 27.6376C24.4988 27.3177 27.6257 26.1596 29.6498 24.1246C30.3171 23.3028 31.8006 20.9865 32.3962 18.2787C33.1462 14.8925 33.24 12.5817 32.6223 11.9309C32.1259 11.407 31.4697 13.5302 31.205 14.6553C31.1995 15.5763 30.6921 17.9422 28.7122 20.049C28.2324 20.6115 26.1312 22.0454 26.0374 22.1006C26.0374 22.1006 25.0502 23.187 24.8847 23.4462C24.8792 23.369 25.872 22.0564 26.8096 21.5325C27.7471 21.0086 28.9548 18.3118 29.021 18.1463C29.2636 17.2032 29.3023 16.5359 28.7178 16.6683C27.9898 16.8337 26.986 17.297 26.0264 18.3559C25.2598 19.2052 24.4602 19.685 24.1513 19.8229C23.1807 20.1813 20.8313 21.3615 19.1989 23.2201C17.5664 25.0731 17.2851 26.4188 16.4909 28.338Z" fill="#49B7B7"/>
<path d="M22.0887 28.0568C21.1401 27.2957 17.4726 28.2001 14.9247 27.6376C13.6121 27.3177 10.4851 26.1596 8.46113 24.1246C7.79382 23.3028 6.3103 20.9865 5.71468 18.2787C4.96464 14.8925 4.8708 12.5817 5.48847 11.9309C5.98482 11.407 6.64115 13.5302 6.90587 14.6553C6.91138 15.5763 7.41877 17.9422 9.39866 20.049C9.87846 20.6115 11.9796 22.0454 12.0678 22.1006C12.0678 22.1006 13.0551 23.187 13.2205 23.4462C13.226 23.369 12.2333 22.0564 11.2958 21.5325C10.3582 21.0086 9.15044 18.3118 9.08426 18.1463C8.8416 17.2032 8.80303 16.5359 9.38762 16.6683C10.1156 16.8337 11.1193 17.297 12.0789 18.3559C12.8455 19.2052 13.6452 19.685 13.9485 19.8229C14.9192 20.1813 17.2685 21.3615 18.901 23.2201C20.5389 25.0787 21.2945 26.143 22.0887 28.0568Z" fill="#49B7B7"/>
<path d="M17.4783 5.28541H18.0243C18.5151 5.28541 18.9122 5.68249 18.9122 6.17333V6.71931C18.9122 7.21015 18.5151 7.60723 18.0243 7.60723H17.4783C16.9874 7.60723 16.5904 7.21015 16.5904 6.71931V6.17333C16.5904 5.68249 16.9874 5.28541 17.4783 5.28541Z" fill="#49B7B7"/>
<path d="M17.4783 8.07579H18.0243C18.5151 8.07579 18.9122 8.47287 18.9122 8.9637V9.50969C18.9122 10.0005 18.5151 10.3976 18.0243 10.3976H17.4783C16.9874 10.3976 16.5904 10.0005 16.5904 9.50969V8.9637C16.5904 8.47287 16.9874 8.07579 17.4783 8.07579Z" fill="#49B7B7"/>
<path d="M20.2637 5.28541H20.8097C21.3006 5.28541 21.6977 5.68249 21.6977 6.17333V6.71931C21.6977 7.21015 21.3006 7.60723 20.8097 7.60723H20.2637C19.7729 7.60723 19.3758 7.21015 19.3758 6.71931V6.17333C19.3758 5.68249 19.7729 5.28541 20.2637 5.28541Z" fill="#49B7B7"/>
<path d="M20.2637 8.07579H20.8097C21.3006 8.07579 21.6977 8.47287 21.6977 8.9637V9.50969C21.6977 10.0005 21.3006 10.3976 20.8097 10.3976H20.2637C19.7729 10.3976 19.3758 10.0005 19.3758 9.50969V8.9637C19.3758 8.47287 19.7729 8.07579 20.2637 8.07579Z" fill="#49B7B7"/>
<path d="M57.9815 25.8318C56.4331 25.8318 55.0024 25.5574 53.6892 25.0087C52.3957 24.4403 51.2589 23.6465 50.279 22.6273C49.3186 21.6082 48.5738 20.4126 48.0447 19.0407C47.5155 17.6687 47.2509 16.1694 47.2509 14.5426C47.2509 12.8963 47.5155 11.3872 48.0447 10.0152C48.5738 8.64327 49.3186 7.44772 50.279 6.42856C51.2393 5.40939 52.3761 4.62542 53.6892 4.07664C55.0024 3.50827 56.4331 3.22408 57.9815 3.22408C59.4906 3.22408 60.843 3.48867 62.0385 4.01785C63.2537 4.54703 64.2728 5.233 65.096 6.07577C65.9388 6.91854 66.5366 7.8201 66.8893 8.78047L64.2434 9.98582C63.7339 8.77067 62.9401 7.7907 61.8621 7.04593C60.7842 6.28156 59.4906 5.89938 57.9815 5.89938C56.4527 5.89938 55.0906 6.26196 53.895 6.98713C52.7191 7.71231 51.7979 8.72167 51.1315 10.0152C50.4652 11.3088 50.132 12.8179 50.132 14.5426C50.132 16.2478 50.4652 17.7471 51.1315 19.0407C51.7979 20.3342 52.7191 21.3436 53.895 22.0688C55.0906 22.7939 56.4527 23.1565 57.9815 23.1565C59.4906 23.1565 60.7842 22.7841 61.8621 22.0394C62.9401 21.275 63.7339 20.2852 64.2434 19.0701L66.8893 20.2754C66.5366 21.2358 65.9388 22.1374 65.096 22.9801C64.2728 23.8229 63.2537 24.5089 62.0385 25.0381C60.843 25.5672 59.4906 25.8318 57.9815 25.8318Z" fill="#49B7B7"/>
<path d="M74.8427 25.8318C73.8039 25.8318 72.8827 25.6456 72.0792 25.2732C71.2952 24.8813 70.6778 24.3521 70.227 23.6857C69.7762 22.9997 69.5509 22.2158 69.5509 21.3338C69.5509 20.491 69.7272 19.7365 70.08 19.0701C70.4524 18.3841 71.0208 17.8059 71.7852 17.3355C72.5691 16.8652 73.5491 16.532 74.7251 16.336L80.6048 15.3658V17.6589L75.3424 18.5409C74.3233 18.7173 73.5785 19.0407 73.1081 19.5111C72.6573 19.9814 72.4319 20.5596 72.4319 21.2456C72.4319 21.8924 72.6867 22.4313 73.1963 22.8625C73.7255 23.2937 74.3821 23.5093 75.166 23.5093C76.1656 23.5093 77.028 23.3035 77.7531 22.8919C78.4979 22.4607 79.0761 21.8826 79.4877 21.1574C79.9189 20.4322 80.1345 19.6287 80.1345 18.7467V14.719C80.1345 13.8567 79.8111 13.1609 79.1643 12.6317C78.5371 12.0829 77.7041 11.8086 76.6654 11.8086C75.7638 11.8086 74.9603 12.0437 74.2547 12.5141C73.5687 12.9649 73.0591 13.5725 72.7259 14.3369L70.3446 13.1021C70.6386 12.3769 71.109 11.7302 71.7558 11.1618C72.4026 10.5738 73.1571 10.1132 74.0195 9.78003C74.8819 9.44684 75.7834 9.28025 76.7242 9.28025C77.9393 9.28025 79.0075 9.51544 79.9287 9.98582C80.8498 10.4366 81.5652 11.0736 82.0748 11.8967C82.604 12.7003 82.8686 13.6411 82.8686 14.719V25.479H80.1933V22.4803L80.693 22.6567C80.3599 23.2839 79.9091 23.8327 79.3407 24.3031C78.7723 24.7735 78.1059 25.1458 77.3416 25.4202C76.5772 25.6946 75.7442 25.8318 74.8427 25.8318Z" fill="#49B7B7"/>
<path d="M87.1077 25.479V9.63303H89.783V12.5435L89.489 12.1319C89.8614 11.2304 90.4298 10.564 91.1942 10.1328C91.9585 9.68203 92.8895 9.45664 93.9871 9.45664H94.9572V12.0437H93.5755C92.4583 12.0437 91.5568 12.3965 90.8708 13.1021C90.1848 13.7881 89.8418 14.768 89.8418 16.042V25.479H87.1077Z" fill="#49B7B7"/>
<path d="M104.677 25.8318C103.148 25.8318 101.786 25.4692 100.59 24.7441C99.3948 24.0189 98.454 23.0291 97.7681 21.7748C97.0821 20.5008 96.7391 19.0799 96.7391 17.5119C96.7391 15.9244 97.0723 14.5132 97.7387 13.2785C98.4246 12.0437 99.3458 11.0736 100.502 10.368C101.678 9.64283 102.991 9.28025 104.442 9.28025C105.618 9.28025 106.656 9.49584 107.558 9.92702C108.479 10.3386 109.253 10.907 109.88 11.6322C110.527 12.3377 111.017 13.1511 111.35 14.0723C111.703 14.9738 111.88 15.9146 111.88 16.8946C111.88 17.1101 111.86 17.3551 111.821 17.6295C111.801 17.8843 111.772 18.1293 111.733 18.3645H98.7382V16.0126H110.145L108.851 17.071C109.028 16.0518 108.93 15.1404 108.557 14.3369C108.185 13.5333 107.636 12.8963 106.911 12.4259C106.186 11.9555 105.363 11.7204 104.442 11.7204C103.52 11.7204 102.678 11.9555 101.913 12.4259C101.149 12.8963 100.551 13.5725 100.12 14.4544C99.7084 15.3168 99.5418 16.3458 99.6202 17.5413C99.5418 18.6977 99.7182 19.7169 100.149 20.5988C100.6 21.4612 101.227 22.1374 102.031 22.6273C102.854 23.0977 103.746 23.3329 104.706 23.3329C105.765 23.3329 106.656 23.0879 107.381 22.5979C108.107 22.108 108.695 21.4808 109.145 20.7164L111.439 21.8924C111.125 22.6175 110.635 23.2839 109.969 23.8915C109.322 24.4795 108.548 24.9499 107.646 25.3026C106.764 25.6554 105.774 25.8318 104.677 25.8318Z" fill="#49B7B7"/>
<path d="M115.768 25.479V3.57686H118.649V22.8331H128.262V25.479H115.768Z" fill="#49B7B7"/>
<path d="M131.177 25.479V9.63303H133.911V25.479H131.177ZM131.177 7.10473V3.57686H133.911V7.10473H131.177Z" fill="#49B7B7"/>
<path d="M142.564 25.479L136.361 9.63303H139.418L144.386 23.0389H143.328L148.326 9.63303H151.383L145.151 25.479H142.564Z" fill="#49B7B7"/>
<path d="M153.829 25.479V9.63303H156.564V25.479H153.829ZM153.829 7.10473V3.57686H156.564V7.10473H153.829Z" fill="#49B7B7"/>
<path d="M160.806 25.479V9.63303H163.481V12.7199L163.04 12.4553C163.432 11.4558 164.059 10.6816 164.922 10.1328C165.804 9.56444 166.833 9.28025 168.009 9.28025C169.145 9.28025 170.155 9.53504 171.037 10.0446C171.938 10.5542 172.644 11.2598 173.153 12.1613C173.683 13.0629 173.947 14.0821 173.947 15.2188V25.479H171.184V16.1008C171.184 15.2188 171.027 14.4741 170.713 13.8665C170.4 13.2589 169.949 12.7885 169.361 12.4553C168.793 12.1025 168.136 11.9261 167.391 11.9261C166.647 11.9261 165.98 12.1025 165.392 12.4553C164.824 12.7885 164.373 13.2687 164.04 13.8959C163.707 14.5034 163.54 15.2384 163.54 16.1008V25.479H160.806Z" fill="#49B7B7"/>
<path d="M185.415 31.9468C184.298 31.9468 183.259 31.7704 182.299 31.4176C181.358 31.0648 180.545 30.5748 179.859 29.9477C179.192 29.3401 178.683 28.6247 178.33 27.8015L180.888 26.6256C181.162 27.3704 181.681 27.9975 182.446 28.5071C183.23 29.0363 184.21 29.3009 185.386 29.3009C186.287 29.3009 187.101 29.1245 187.826 28.7717C188.571 28.4385 189.159 27.9289 189.59 27.243C190.021 26.5766 190.236 25.7632 190.236 24.8029V21.2456L190.736 21.7748C190.188 22.8527 189.394 23.6759 188.355 24.2443C187.336 24.8127 186.209 25.0968 184.974 25.0968C183.485 25.0968 182.152 24.7539 180.976 24.0679C179.8 23.3623 178.879 22.4117 178.212 21.2162C177.546 20.001 177.213 18.6585 177.213 17.1885C177.213 15.699 177.546 14.3565 178.212 13.1609C178.879 11.9653 179.79 11.0246 180.946 10.3386C182.122 9.63303 183.455 9.28025 184.945 9.28025C186.179 9.28025 187.297 9.56444 188.296 10.1328C189.315 10.6816 190.129 11.446 190.736 12.4259L190.325 13.1609V9.63303H193V24.8029C193 26.1748 192.677 27.3998 192.03 28.4777C191.383 29.5557 190.481 30.3984 189.325 31.006C188.188 31.6332 186.885 31.9468 185.415 31.9468ZM185.209 22.4509C186.15 22.4509 186.993 22.2158 187.738 21.7454C188.502 21.275 189.11 20.6478 189.56 19.8638C190.011 19.0603 190.236 18.1685 190.236 17.1885C190.236 16.2282 190.011 15.3462 189.56 14.5426C189.11 13.7391 188.502 13.1021 187.738 12.6317C186.993 12.1613 186.15 11.9261 185.209 11.9261C184.249 11.9261 183.377 12.1613 182.593 12.6317C181.809 13.1021 181.191 13.7391 180.741 14.5426C180.309 15.3266 180.094 16.2086 180.094 17.1885C180.094 18.1685 180.309 19.0603 180.741 19.8638C181.191 20.6478 181.799 21.275 182.563 21.7454C183.347 22.2158 184.229 22.4509 185.209 22.4509Z" fill="#49B7B7"/>
</svg>
